<svg width="1200" height="320" viewBox="0 0 1200 320" fill="none" xmlns="http://www.w3.org/2000/svg">
  <defs>
    <linearGradient id="bg" x1="0" y1="0" x2="1200" y2="320" gradientUnits="userSpaceOnUse">
      <stop stop-color="#0B1020"/>
      <stop offset="1" stop-color="#111A2E"/>
    </linearGradient>
    <linearGradient id="line" x1="160" y1="80" x2="1040" y2="240" gradientUnits="userSpaceOnUse">
      <stop stop-color="#7DD3FC" stop-opacity="0.85"/>
      <stop offset="0.5" stop-color="#60A5FA" stop-opacity="0.55"/>
      <stop offset="1" stop-color="#93C5FD" stop-opacity="0.8"/>
    </linearGradient>
    <linearGradient id="glow" x1="0" y1="0" x2="0" y2="1">
      <stop stop-color="#E2E8F0" stop-opacity="0.95"/>
      <stop offset="1" stop-color="#93C5FD" stop-opacity="0.95"/>
    </linearGradient>
    <filter id="softGlow" x="-30%" y="-30%" width="160%" height="160%">
      <feGaussianBlur stdDeviation="6" result="blur"/>
      <feMerge>
        <feMergeNode in="blur"/>
        <feMergeNode in="SourceGraphic"/>
      </feMerge>
    </filter>
  </defs>

  <rect width="1200" height="320" rx="24" fill="url(#bg)"/>

  <g opacity="0.14" stroke="#93C5FD" stroke-width="1">
    <path d="M80 40H1120"/>
    <path d="M80 88H1120"/>
    <path d="M80 136H1120"/>
    <path d="M80 184H1120"/>
    <path d="M80 232H1120"/>
    <path d="M80 280H1120"/>
    <path d="M120 24V296"/>
    <path d="M240 24V296"/>
    <path d="M360 24V296"/>
    <path d="M480 24V296"/>
    <path d="M600 24V296"/>
    <path d="M720 24V296"/>
    <path d="M840 24V296"/>
    <path d="M960 24V296"/>
    <path d="M1080 24V296"/>
  </g>

  <g opacity="0.18">
    <circle cx="960" cy="160" r="136" fill="#0F172A"/>
    <circle cx="960" cy="160" r="92" stroke="#60A5FA" stroke-width="1.5"/>
    <circle cx="960" cy="160" r="56" stroke="#93C5FD" stroke-width="1.5"/>
  </g>

  <g stroke="url(#line)" stroke-width="2.5" stroke-linecap="round">
    <path d="M168 94H300L392 144H520L610 104H760L848 160H1032"/>
    <path d="M168 222H286L382 176H532L624 224H756L852 160H1032"/>
    <path d="M760 104L852 160L760 224"/>
  </g>

  <g fill="#020617" filter="url(#softGlow)">
    <circle cx="168" cy="94" r="8" stroke="#7DD3FC" stroke-width="3"/>
    <circle cx="168" cy="222" r="8" stroke="#7DD3FC" stroke-width="3"/>
    <circle cx="392" cy="144" r="8" stroke="#7DD3FC" stroke-width="3"/>
    <circle cx="382" cy="176" r="8" stroke="#7DD3FC" stroke-width="3"/>
    <circle cx="610" cy="104" r="8" stroke="#7DD3FC" stroke-width="3"/>
    <circle cx="624" cy="224" r="8" stroke="#7DD3FC" stroke-width="3"/>
    <circle cx="852" cy="160" r="9" stroke="#E2E8F0" stroke-width="3"/>
    <circle cx="1032" cy="160" r="8" stroke="#7DD3FC" stroke-width="3"/>
  </g>

  <g fill="#94A3B8" font-family="'SFMono-Regular', Consolas, 'Liberation Mono', Menlo, monospace" font-size="13" letter-spacing="0.08em">
    <text x="154" y="72">INGRESS</text>
    <text x="355" y="126">PIPELINE_A</text>
    <text x="569" y="84">SYSTEMS</text>
    <text x="574" y="246">NETWORKS</text>
    <text x="815" y="139">CONTROL</text>
    <text x="1003" y="138">EGRESS</text>
  </g>

  <g fill="url(#glow)" font-family="'SFMono-Regular', Consolas, 'Liberation Mono', Menlo, monospace">
    <text x="110" y="118" font-size="18" letter-spacing="0.28em">XINDAN ZHANG</text>
    <text x="110" y="158" font-size="44" font-weight="700">control plane / profile</text>
    <text x="110" y="192" font-size="17" fill="#CBD5E1">systems engineer for networked runtimes, experiments, and agentic tooling</text>
  </g>

  <g fill="#E2E8F0" font-family="'SFMono-Regular', Consolas, 'Liberation Mono', Menlo, monospace" font-size="14">
    <text x="110" y="248">$ surface</text>
    <text x="110" y="272">nextmini.org</text>
    <text x="312" y="272">personal-site</text>
  </g>
</svg>
